<svg class="animated" id="freepik_stories-growing" xmlns="http://www.w3.org/2000/svg" xmlns:xlink="http://www.w3.org/1999/xlink" viewBox="0 0 500 500" version="1.1" xmlns:svgjs="http://svgjs.com/svgjs"><style>svg#freepik_stories-growing:not(.animated) .animable {opacity: 0;}svg#freepik_stories-growing.animated #freepik--Charts--inject-440 {animation: 1.0s 1 forwards linear fadeIn;animation-delay: 0s;}            @keyframes fadeIn {                0% {                    opacity: 0;                }                100% {                    opacity: 1;                }            }        </style><g id="freepik--background-simple--inject-440" class="animable" style="transform-origin: 254.008px 282.446px;"><path d="M441.09,359.28c19.47-48.76,26-106.38,9.67-156.9-19-58.95-72.44-92.81-134-98.31C275,100.32,232,116.25,207.74,150.82c-14.52,20.67-25.81,44.44-44.86,61.67S117.7,233.13,95,243.4c-22,9.95-35.62,28.3-42.21,50.94A123.72,123.72,0,0,0,58,377.2c17.51,40.64,55.12,66.69,98.35,75.71,54,11.28,115.21,11.18,169.34.21S420.86,410,441.09,359.28Z" style="fill: rgb(0, 255, 136); transform-origin: 254.008px 282.446px;" id="ely14z0b3sbhn" class="animable"></path><g id="elu5b1q8yf7m"><path d="M441.09,359.28c19.47-48.76,26-106.38,9.67-156.9-19-58.95-72.44-92.81-134-98.31C275,100.32,232,116.25,207.74,150.82c-14.52,20.67-25.81,44.44-44.86,61.67S117.7,233.13,95,243.4c-22,9.95-35.62,28.3-42.21,50.94A123.72,123.72,0,0,0,58,377.2c17.51,40.64,55.12,66.69,98.35,75.71,54,11.28,115.21,11.18,169.34.21S420.86,410,441.09,359.28Z" style="fill: rgb(255, 255, 255); opacity: 0.7; transform-origin: 254.008px 282.446px;" class="animable"></path></g></g><g id="freepik--Charts--inject-440" class="animable animator-active" style="transform-origin: 242.404px 282.918px;"><g id="elkc1p71hswh"><path d="M453.58,212.08H163.31c-.15.14-.28.28-.43.41C149.16,224.9,131.7,230.15,114.5,236H458.22A193.22,193.22,0,0,0,453.58,212.08Z" style="opacity: 0.03; transform-origin: 286.36px 224.04px;" class="animable"></path></g><g id="eleib33k1ee5v"><path d="M460,260.55H71.19a80.07,80.07,0,0,0-14.92,23.89H459.08A235.51,235.51,0,0,0,460,260.55Z" style="opacity: 0.03; transform-origin: 258.144px 272.495px;" class="animable"></path></g><g id="elol300rlm79c"><path d="M48.08,332.91h402q3.35-11.78,5.63-23.9H49.52A123.37,123.37,0,0,0,48.08,332.91Z" style="opacity: 0.03; transform-origin: 251.853px 320.96px;" class="animable"></path></g><g id="elg4y5c2ir9ts"><path d="M58,377.2c.6,1.41,1.24,2.8,1.9,4.17H430.28a159.91,159.91,0,0,0,10.81-22.09c.24-.6.47-1.2.7-1.8H51.41A120.59,120.59,0,0,0,58,377.2Z" style="opacity: 0.03; transform-origin: 246.6px 369.425px;" class="animable"></path></g><g id="elgvi5j8mjeqd"><path d="M101.57,429.84H384a145.6,145.6,0,0,0,28.2-23.9H75.49A127.37,127.37,0,0,0,101.57,429.84Z" style="opacity: 0.03; transform-origin: 243.845px 417.89px;" class="animable"></path></g><path d="M262,460.87a419.39,419.39,0,0,0,63.61-7.75,172.84,172.84,0,0,0,45.58-15.87V351.4H262Z" style="fill: rgb(0, 255, 136); transform-origin: 316.595px 406.135px;" id="el5fge4xxg3yr" class="animable"></path><g id="elf1ly4kt85kh"><path d="M262,460.87a419.39,419.39,0,0,0,63.61-7.75,172.84,172.84,0,0,0,45.58-15.87V351.4H262Z" style="fill-opacity: 0.5; stroke: rgb(38, 50, 56); stroke-linecap: round; stroke-linejoin: round; transform-origin: 316.595px 406.135px;" class="animable"></path></g><path d="M262,460.87V351.4L252.55,329V461.21C255.71,461.13,258.88,461,262,460.87Z" style="fill: rgb(38, 50, 56); transform-origin: 257.275px 395.105px;" id="elya81g5yoewd" class="animable"></path><g id="eltrkce8hz658"><polygon points="371.23 351.58 262.03 351.58 252.55 328.99 361.74 328.99 371.23 351.58" style="fill: rgb(255, 255, 255); stroke: rgb(38, 50, 56); stroke-linecap: round; stroke-linejoin: round; stroke-width: 1.16992px; opacity: 0.5; transform-origin: 311.89px 340.285px;" class="animable"></polygon></g><polygon points="371.23 351.58 262.03 351.58 252.55 328.99 361.74 328.99 371.23 351.58" style="fill: rgb(0, 255, 136); stroke: rgb(38, 50, 56); stroke-linecap: round; stroke-linejoin: round; transform-origin: 311.89px 340.285px;" id="elibxb5p42cl" class="animable"></polygon><path d="M255.35,411H146.16v39.41q5,1.4,10.14,2.47a423.39,423.39,0,0,0,99,8.22Z" style="fill: rgb(0, 255, 136); stroke: rgb(38, 50, 56); stroke-linecap: round; stroke-linejoin: round; transform-origin: 200.755px 436.178px;" id="elmxgxeif1ndc" class="animable"></path><polygon points="255.35 411.2 146.16 411.2 136.67 388.61 245.87 388.61 255.35 411.2" style="fill: rgb(0, 255, 136); transform-origin: 196.01px 399.905px;" id="elth1wcxahep" class="animable"></polygon><g style="clip-path: url(&quot;#freepik--clip-path--inject-440&quot;); transform-origin: 196.01px 399.905px;" id="elkkbkivhyj6" class="animable"><g id="elu3f56m1iclk"><polygon points="255.35 411.2 146.16 411.2 136.67 388.61 245.87 388.61 255.35 411.2" style="fill: rgb(255, 255, 255); stroke: rgb(38, 50, 56); stroke-linecap: round; stroke-linejoin: round; opacity: 0.5; transform-origin: 196.01px 399.905px;" class="animable"></polygon></g></g><polygon points="255.35 411.2 146.16 411.2 136.67 388.61 245.87 388.61 255.35 411.2" style="fill: none; stroke: rgb(38, 50, 56); stroke-linecap: round; stroke-linejoin: round; stroke-width: 1.16992px; transform-origin: 196.01px 399.905px;" id="elwj2gieugbfb" class="animable"></polygon><path d="M136.67,447.5c3.12,1.08,6.29,2.05,9.49,2.94V411l-9.49-22.42Z" style="fill: rgb(38, 50, 56); transform-origin: 141.415px 419.51px;" id="el1rxnwjshbow" class="animable"></path><path d="M58,377.2C72.94,412,102.67,436.07,138,448V375.36H57.2C57.46,376,57.69,376.59,58,377.2Z" style="fill: rgb(0, 255, 136); transform-origin: 97.6px 411.68px;" id="elzftq4nof2jb" class="animable"></path><g id="eltpbuwaghjka"><path d="M58,377.2C72.94,412,102.67,436.07,138,448V375.36H57.2C57.46,376,57.69,376.59,58,377.2Z" style="fill-opacity: 0.5; stroke: rgb(38, 50, 56); stroke-linecap: round; stroke-linejoin: round; transform-origin: 97.6px 411.68px;" class="animable"></path></g><path d="M57.28,375.54H138L128.55,353H50.42A121.83,121.83,0,0,0,57.28,375.54Z" style="fill: rgb(0, 255, 136); stroke: rgb(38, 50, 56); stroke-linecap: round; stroke-linejoin: round; transform-origin: 94.21px 364.27px;" id="el9suoggoj9ps" class="animable"></path><path d="M421.3,185.62l-55.56-66.08-5.84,5.84,20.25,24.08L186.39,312.38l-44.7-50.7a11.69,11.69,0,0,0-17.84.35L24.79,383.7l18.15,14.78,90.33-111,43.13,48.92a11.69,11.69,0,0,0,16.3,1.22L395.21,167.37l20.25,24.09Z" style="fill: rgb(255, 255, 255); stroke: rgb(38, 50, 56); stroke-linecap: round; stroke-linejoin: round; transform-origin: 223.045px 259.01px;" id="elyklaxktc0rm" class="animable"></path><path d="M450.74,104.48l-85,15.06L386,143.63,192.23,306.55l-44.7-50.71a11.7,11.7,0,0,0-17.85.35L30.63,377.87l18.14,14.77,90.34-111,43.13,48.92a11.69,11.69,0,0,0,16.3,1.22L401.05,161.54l20.25,24.08Z" style="fill: rgb(38, 50, 56); stroke: rgb(38, 50, 56); stroke-linecap: round; stroke-linejoin: round; transform-origin: 240.685px 248.56px;" id="elk8hlavns4g" class="animable"></path></g><g id="freepik--Character--inject-440" class="animable" style="transform-origin: 311.605px 206.467px;"><g id="elvsfxs775wo"><ellipse cx="313.14" cy="340.31" rx="41.18" ry="7.13" style="opacity: 0.15; transform-origin: 313.14px 340.31px;" class="animable"></ellipse></g><path d="M287.89,326.54s-6.62,10.14-6.23,12.87,7.79,5.85,10.13,7,17.16,2.73,19.11.39-2.73-3.12-5.46-4.29-9.75-7-9.75-7l-.78-6.63Z" style="fill: rgb(38, 50, 56); stroke: rgb(38, 50, 56); stroke-miterlimit: 10; stroke-width: 1.16992px; transform-origin: 296.503px 337.274px;" id="ela5x0i113lwp" class="animable"></path><path d="M310.9,346.82c.61-.73.57-1.31.15-1.8-4.46.43-11.28.82-16.14-.15-5.68-1.13-10.72-4.95-13.05-6.94a3.75,3.75,0,0,0-.2,1.48c.39,2.73,7.79,5.85,10.13,7S309,349.16,310.9,346.82Z" style="fill: rgb(255, 255, 255); stroke: rgb(38, 50, 56); stroke-linecap: round; stroke-linejoin: round; stroke-width: 1.16992px; transform-origin: 296.507px 342.976px;" id="elxfqs7anwh7g" class="animable"></path><path d="M328.45,319.13s-7,7.8-5.46,10.14,6.63,1.56,9.75,4.29,7.8,6.24,12.48,7.8,8.58-1.17,6.63-2.73-10.92-9.36-11.7-12.09a32.11,32.11,0,0,1-.78-7Z" style="fill: rgb(38, 50, 56); stroke: rgb(38, 50, 56); stroke-miterlimit: 10; stroke-width: 1.16992px; transform-origin: 337.566px 330.478px;" id="el4wi4pf4qy9w" class="animable"></path><path d="M352.1,340.29a21.19,21.19,0,0,1-6.1-.49c-3.51-.78-8.19-5.85-12.87-9.36-2.91-2.18-7.32-2.7-10.25-2.79a2.07,2.07,0,0,0,.11,1.62c1.56,2.34,6.63,1.56,9.75,4.29s7.8,6.24,12.48,7.8C348.42,342.43,351.26,341.49,352.1,340.29Z" style="fill: rgb(255, 255, 255); stroke: rgb(38, 50, 56); stroke-linecap: round; stroke-linejoin: round; stroke-width: 1.16992px; transform-origin: 337.432px 334.739px;" id="el3pyql4wx9z" class="animable"></path><path d="M309.37,197s-5.62,20.3-4.45,26.15,9.1,54.25,9.1,54.25l-26.13,49.13,9.75,5.46s34.32-44.84,34.71-50.3,1.32-47.82,1.32-47.82l22.47,40.41-29.25,44.45s4.68,3.9,7.8,3.9h5.07s37.05-46,37.44-48.74-24.92-58.07-24.92-58.07l-1.58-12.58Z" style="fill: rgb(0, 255, 136); stroke: rgb(38, 50, 56); stroke-linecap: round; stroke-linejoin: round; stroke-width: 1.16992px; transform-origin: 332.547px 264.495px;" id="eluweo7qu40rl" class="animable"></path><path d="M317.09,211.05s2.83,6.8.28,10.49-7.65,5.1-7.65,5.1" style="fill: none; stroke: rgb(38, 50, 56); stroke-linecap: round; stroke-linejoin: round; stroke-width: 1.16992px; transform-origin: 314.078px 218.845px;" id="elx7htbor2y4o" class="animable"></path><line x1="333.67" y1="233.88" x2="346.85" y2="222.11" style="fill: none; stroke: rgb(38, 50, 56); stroke-linecap: round; stroke-linejoin: round; stroke-width: 1.16992px; transform-origin: 340.26px 227.995px;" id="el15rk3l0wx82" class="animable"></line><path d="M342.9,213.05l-2.09,4.47s5.67,1.49,3.29,4.18-3.88,3-3.88,3" style="fill: none; stroke: rgb(38, 50, 56); stroke-linecap: round; stroke-linejoin: round; stroke-width: 1.16992px; transform-origin: 342.452px 218.875px;" id="el4dg3jha8trr" class="animable"></path><line x1="334.66" y1="233.73" x2="344.87" y2="227.49" style="fill: none; stroke: rgb(38, 50, 56); stroke-linecap: round; stroke-linejoin: round; stroke-width: 1.16992px; transform-origin: 339.765px 230.61px;" id="el2asf7z91n5m" class="animable"></line><path d="M310,211.05a132.55,132.55,0,0,0-1.42,13.89" style="fill: none; stroke: rgb(38, 50, 56); stroke-linecap: round; stroke-linejoin: round; stroke-width: 1.16992px; transform-origin: 309.29px 217.995px;" id="eli3n0mrf260r" class="animable"></path><line x1="294.59" y1="324.5" x2="292.99" y2="327.27" style="fill: none; stroke: rgb(38, 50, 56); stroke-linecap: round; stroke-linejoin: round; stroke-width: 1.16992px; transform-origin: 293.79px 325.885px;" id="elauppxkopqbi" class="animable"></line><path d="M309.72,230.61s6.23,44.22,6.8,45.64,2.83,1.42,2.27,2.55a5.91,5.91,0,0,1-2.27,2l1.42,3.12-21.07,36.64" style="fill: none; stroke: rgb(38, 50, 56); stroke-linecap: round; stroke-linejoin: round; stroke-width: 1.16992px; transform-origin: 307.874px 275.585px;" id="el404k8kpmy4f" class="animable"></path><line x1="335.13" y1="315.77" x2="332.68" y2="319.62" style="fill: none; stroke: rgb(38, 50, 56); stroke-linecap: round; stroke-linejoin: round; stroke-width: 1.16992px; transform-origin: 333.905px 317.695px;" id="elyabek9hexcf" class="animable"></line><path d="M336.93,233.44S356.21,266,359,270.86s6.8,2.55,5.67,4.25-5.39,2.56-5.39,2.56L337.4,312.19" style="fill: none; stroke: rgb(38, 50, 56); stroke-linecap: round; stroke-linejoin: round; stroke-width: 1.16992px; transform-origin: 350.898px 272.815px;" id="elbjg7mge5khc" class="animable"></path><path d="M307.57,205.61a14.11,14.11,0,0,0,2.17,1.27c3.11,1.55,4.41,2.33,4.41,2.33l1-5.18,3.89.77-.52,4.41s-.52,1,4.67,1.3S330,211.8,330,211.8l1-6,3.89-.26v6.74a77.78,77.78,0,0,0,9.07-.52,13.12,13.12,0,0,0,5.44-2.07v-4.67l-2.11-2.33L309.37,197S308.53,201.58,307.57,205.61Z" style="fill: rgb(38, 50, 56); transform-origin: 328.485px 204.64px;" id="elomtp3x1zq4" class="animable"></path><path d="M340.58,208.17v3.63a27.12,27.12,0,0,0,6.74-1.55l.51-3.11S341.87,207.65,340.58,208.17Z" style="fill: rgb(255, 255, 255); stroke: rgb(38, 50, 56); stroke-linecap: round; stroke-linejoin: round; stroke-width: 1.16992px; transform-origin: 344.205px 209.47px;" id="el57zrd3sp6lg" class="animable"></path><path d="M376.17,207.41l-6.05.51-4.66,5.53s4.49,3.62,6.91,5.87,4.49,4.31,6.39,3.79,8.45-9.49,8.45-11.56S379.79,205.68,376.17,207.41Z" style="fill: rgb(255, 255, 255); stroke: rgb(38, 50, 56); stroke-linecap: round; stroke-linejoin: round; stroke-width: 1.16992px; transform-origin: 376.335px 215.081px;" id="el51xcgjjsjy" class="animable"></path><path d="M372.54,209.13a16.44,16.44,0,0,1,3.63-2.93,6.07,6.07,0,0,1,6.38.17c2.25,1.38,2.59,2.76,1.38,4.31s-5.86,7.08-6.21,5.7,1.73-5.7,1.73-5.7-2.77,6.39-6.56,2.25" style="fill: rgb(255, 255, 255); stroke: rgb(38, 50, 56); stroke-linecap: round; stroke-linejoin: round; stroke-width: 1.16992px; transform-origin: 378.579px 210.988px;" id="elmmpxfgmvznr" class="animable"></path><path d="M377.55,221.73s-2.76-2.59-2.76-3.79,3.62-4.32,3.62-4.32" style="fill: none; stroke: rgb(38, 50, 56); stroke-linecap: round; stroke-linejoin: round; stroke-width: 1.16992px; transform-origin: 376.6px 217.675px;" id="el7nn6npd4ztd" class="animable"></path><polygon points="368.74 204.64 372.2 207.41 366.5 214.14 363.39 211.2 368.74 204.64" style="fill: rgb(255, 255, 255); stroke: rgb(38, 50, 56); stroke-linecap: round; stroke-linejoin: round; stroke-width: 1.16992px; transform-origin: 367.795px 209.39px;" id="eldejbam95cq" class="animable"></polygon><polygon points="351.66 188.88 370.12 204.56 362.46 212.22 346.78 201.77 351.66 188.88" style="fill: rgb(0, 255, 136); stroke: rgb(38, 50, 56); stroke-linecap: round; stroke-linejoin: round; stroke-width: 1.16992px; transform-origin: 358.45px 200.55px;" id="el1f72po08nw6" class="animable"></polygon><path d="M325,129.41s-9,4.81-10.46,12.76-5.86,52.77-5.86,56.74,11.29,8.79,21.12,9,19.87,0,21.34-3.35,4.4-41.47,3.14-52.35-4-16.94-8-19.66S330.45,126.28,325,129.41Z" style="fill: rgb(255, 255, 255); stroke: rgb(38, 50, 56); stroke-linecap: round; stroke-linejoin: round; stroke-width: 1.16992px; transform-origin: 331.634px 168.077px;" id="elsknwcmvbh5" class="animable"></path><path d="M312.64,199s22.44-8.9,31.33-20.89" style="fill: none; stroke: rgb(38, 50, 56); stroke-linecap: round; stroke-linejoin: round; stroke-width: 1.16992px; transform-origin: 328.305px 188.555px;" id="elg88i4tlpyd9" class="animable"></path><path d="M311.09,201.66a62.71,62.71,0,0,0,27.85-3.48" style="fill: none; stroke: rgb(38, 50, 56); stroke-linecap: round; stroke-linejoin: round; stroke-width: 1.16992px; transform-origin: 325.015px 200.081px;" id="elm4x1wnf9l2d" class="animable"></path><path d="M328.35,110.17s0,.39.06,1.06a69,69,0,0,1-.26,10.23l-.63,5.65,15.89,4.6s.63-3.34,2.1-8.15a49.18,49.18,0,0,1,4.39-9.63s-7.32-2.3-11.51-5.85S329.82,105.78,328.35,110.17Z" style="fill: rgb(255, 255, 255); stroke: rgb(38, 50, 56); stroke-linecap: round; stroke-linejoin: round; stroke-width: 1.16992px; transform-origin: 338.71px 118.864px;" id="eloe6hba5tc1s" class="animable"></path><path d="M343.83,80.68s4.6-3.56,1.89-10.46-14.23-6.07-18.41-3.14-2.09,4.81.21,5,3.34,2.72.42,3.56-6.28-1.26-11.09,4-.21,9.83.63,8.58,2.3-4.19,2.72-2.3S316,90.3,315.39,96.16s4.81,11.71,8.36,14.64,8.16,3.76,10.25,1,4.19-7.32,6.49-10.25-.42-10-1.26-12.76S343.83,80.68,343.83,80.68Z" style="fill: rgb(38, 50, 56); stroke: rgb(38, 50, 56); stroke-linecap: round; stroke-linejoin: round; stroke-width: 1.16992px; transform-origin: 330.632px 89.1999px;" id="elqm9amg85nn" class="animable"></path><path d="M333.37,104.73s-2.92-4.39-5.64-2.93,0,7.53,2.51,9.42,5.85-1,5.85-1,5,7.11,8.79,7.11,15.27-.63,16.1-4.39-5.23-16.11-5.23-16.11,1.89-2.3,1.68-3.76-4.19-.84-5-1.47-2.93-6.06-5.44-9-3.76-2.93-3.76-2.93S330,86.32,333,88.42s4,.21,3.76,1.67-4.81,6.9-4,7.53,3.76,2.3,3.34,4.18S335.88,105.36,333.37,104.73Z" style="fill: rgb(255, 255, 255); stroke: rgb(38, 50, 56); stroke-linecap: round; stroke-linejoin: round; stroke-width: 1.16992px; transform-origin: 343.828px 98.5px;" id="el9a3nfghjt15" class="animable"></path><path d="M350.43,92.08c.5,1.21.49,2.36,0,2.58s-1.35-.58-1.86-1.78-.49-2.36,0-2.58S349.92,90.88,350.43,92.08Z" style="fill: rgb(38, 50, 56); transform-origin: 349.498px 92.48px;" id="elr7s2tir6j68" class="animable"></path><path d="M348.6,87.91s-3.08-.91-4.35,1.45" style="fill: none; stroke: rgb(38, 50, 56); stroke-linecap: round; stroke-linejoin: round; stroke-width: 1.16992px; transform-origin: 346.425px 88.5487px;" id="el94cii774l08" class="animable"></path><path d="M355.68,102.25s-1.45,1.63-3.81.18" style="fill: none; stroke: rgb(38, 50, 56); stroke-linecap: round; stroke-linejoin: round; stroke-width: 1.16992px; transform-origin: 353.775px 102.64px;" id="ellhc7mqwog3a" class="animable"></path><path d="M295.9,157.51s-21.38.11-25.76.83.32,12.33.77,15.07S295.9,157.51,295.9,157.51Z" style="fill: rgb(0, 255, 136); stroke: rgb(38, 50, 56); stroke-linecap: round; stroke-linejoin: round; stroke-width: 1.16992px; transform-origin: 282.094px 165.597px;" id="elc5ed2ihuvaq" class="animable"></path><path d="M341.71,134.29a19.68,19.68,0,0,1,3.12,19.5c-4.29,11.3-28.86,31.58-42.12,40.94a256.6,256.6,0,0,1-26.9,16.38S261,199,256.7,187.71s1.15-17,16.75-22.44,35.5-12.26,39-22,7.88-17.08,15.06-16.15S341.71,134.29,341.71,134.29Z" style="fill: rgb(0, 255, 136); stroke: rgb(38, 50, 56); stroke-linecap: round; stroke-linejoin: round; stroke-width: 1.16992px; transform-origin: 300.711px 169.075px;" id="ellg6isb7jo2" class="animable"></path><path d="M313.24,186.54s-14.43,5.46-26.91,9.36-28.07,3.12-27.68,6.24,9.36,9,11.31,10.14,5.85-1.56,10.53-2.73S307,194.34,313.24,186.54Z" style="fill: rgb(38, 50, 56); stroke: rgb(38, 50, 56); stroke-linecap: round; stroke-linejoin: round; stroke-width: 1.16992px; transform-origin: 285.941px 199.547px;" id="el4bjhpzvmdme" class="animable"></path><polygon points="265.69 221.88 264.16 234.25 266.63 234.56 267.9 224.31 288.76 226.89 287.5 237.14 289.97 237.45 291.5 225.08 265.69 221.88" style="fill: rgb(255, 255, 255); stroke: rgb(38, 50, 56); stroke-linecap: round; stroke-linejoin: round; stroke-width: 1.16992px; transform-origin: 277.83px 229.665px;" id="elps5xrhp1rn" class="animable"></polygon><g id="el1okovc4fucj"><rect x="243.55" y="234.26" width="61.63" height="46.67" rx="4.75" style="fill: rgb(255, 255, 255); stroke: rgb(38, 50, 56); stroke-linecap: round; stroke-linejoin: round; stroke-width: 1.16992px; transform-origin: 274.365px 257.595px; transform: rotate(6.91123deg);" class="animable"></rect></g><line x1="246.22" y1="253.62" x2="302.42" y2="260.81" style="fill: none; stroke: rgb(38, 50, 56); stroke-linecap: round; stroke-linejoin: round; stroke-width: 1.16992px; transform-origin: 274.32px 257.215px;" id="elndec46xidm" class="animable"></line><polyline points="253.07 232.81 248.56 270.1 251.74 275.93 256.25 271.42 261.03 233.75" style="fill: rgb(255, 255, 255); stroke: rgb(38, 50, 56); stroke-linecap: round; stroke-linejoin: round; stroke-width: 1.16992px; transform-origin: 254.795px 254.37px;" id="el9dqfgnmawq9" class="animable"></polyline><g id="eljz44u0mfllq"><rect x="247.76" y="258.42" width="11.14" height="5.31" style="fill: rgb(255, 255, 255); stroke: rgb(38, 50, 56); stroke-linecap: round; stroke-linejoin: round; stroke-width: 1.16992px; transform-origin: 253.33px 261.075px; transform: rotate(7.52deg);" class="animable"></rect></g><g id="eld77gc51qbd6"><rect x="247.76" y="260.41" width="11.14" height="1.33" style="fill: rgb(255, 255, 255); stroke: rgb(38, 50, 56); stroke-linecap: round; stroke-linejoin: round; stroke-width: 1.16992px; transform-origin: 253.33px 261.075px; transform: rotate(7.48089deg);" class="animable"></rect></g><polyline points="292.36 237.91 287.83 275.14 291.01 280.98 295.52 276.46 300.3 238.79" style="fill: rgb(255, 255, 255); stroke: rgb(38, 50, 56); stroke-linecap: round; stroke-linejoin: round; stroke-width: 1.16992px; transform-origin: 294.065px 259.445px;" id="elwxbvobtc0e8" class="animable"></polyline><g id="el55m0mmz8ec2"><rect x="287.03" y="263.46" width="11.14" height="5.31" style="fill: rgb(255, 255, 255); stroke: rgb(38, 50, 56); stroke-linecap: round; stroke-linejoin: round; stroke-width: 1.16992px; transform-origin: 292.6px 266.115px; transform: rotate(7.52deg);" class="animable"></rect></g><g id="eluuorqow3vaa"><rect x="287.03" y="265.45" width="11.14" height="1.33" style="fill: rgb(255, 255, 255); stroke: rgb(38, 50, 56); stroke-linecap: round; stroke-linejoin: round; stroke-width: 1.16992px; transform-origin: 292.6px 266.115px; transform: rotate(7.52deg);" class="animable"></rect></g><path d="M335.08,137.8s-4.29-2.34-11.31-1.56S282.05,158.08,277,160.42s-4.68,9.35-4.68,9.35l3.12,44.85h9.74l6.24-43.68s44.69-11.86,46.09-20.7" style="fill: rgb(0, 255, 136); stroke: rgb(38, 50, 56); stroke-linecap: round; stroke-linejoin: round; stroke-width: 1.16992px; transform-origin: 304.912px 175.35px;" id="elaq5lsmcy6s5" class="animable"></path><path d="M285.16,214.62l2.34,8.19s0,7.8-1.17,8.58-1.56,2.34-3.5.78l-1.95-1.56a29.14,29.14,0,0,0-4.29-.78c-1.17,0-3.51,0-4.29-2s3.12-13.26,3.12-13.26Z" style="fill: rgb(255, 255, 255); stroke: rgb(38, 50, 56); stroke-linecap: round; stroke-linejoin: round; stroke-width: 1.16992px; transform-origin: 279.848px 223.704px;" id="elqrnm1a3yqyo" class="animable"></path><path d="M344.3,137.6l1.63,7.2a36,36,0,0,1-11.7,1.95c-6.63,0-17.94-10.53-25.73-16.38s-15.6,1.95-22.62,4.29-12.48,1.17-23.4-2.73-23,5.07-23,5.07L236,145.58l10.92,5.85s10.14-11.31,17.55-11.31,21.84,5.46,27.3,2.34,9.75-9,13.65-8.19S326.43,152.21,335,153a12.39,12.39,0,0,0,12.09-5.85l3.12-9S345,130.78,344.3,137.6Z" style="fill: rgb(38, 50, 56); stroke: rgb(38, 50, 56); stroke-linecap: round; stroke-linejoin: round; stroke-width: 1.16992px; transform-origin: 293.105px 140.666px;" id="el349zhwj3ac1" class="animable"></path><polygon points="346.13 131.29 350.11 131.71 355.75 141.54 349.9 137.15 346.33 138.61 345.92 135.27 346.13 131.29" style="fill: rgb(255, 255, 255); stroke: rgb(38, 50, 56); stroke-linecap: round; stroke-linejoin: round; stroke-width: 1.16992px; transform-origin: 350.835px 136.415px;" id="elcobbspg88p5" class="animable"></polygon><polygon points="324.5 120.39 347.18 129.62 346.76 139.24 321.57 127.09 324.5 120.39" style="fill: rgb(255, 255, 255); stroke: rgb(38, 50, 56); stroke-linecap: round; stroke-linejoin: round; stroke-width: 1.16992px; transform-origin: 334.375px 129.815px;" id="elvdqpagjhdgi" class="animable"></polygon></g><defs>     <filter id="active" height="200%">         <feMorphology in="SourceAlpha" result="DILATED" operator="dilate" radius="2"></feMorphology>                <feFlood flood-color="#32DFEC" flood-opacity="1" result="PINK"></feFlood>        <feComposite in="PINK" in2="DILATED" operator="in" result="OUTLINE"></feComposite>        <feMerge>            <feMergeNode in="OUTLINE"></feMergeNode>            <feMergeNode in="SourceGraphic"></feMergeNode>        </feMerge>    </filter>    <filter id="hover" height="200%">        <feMorphology in="SourceAlpha" result="DILATED" operator="dilate" radius="2"></feMorphology>                <feFlood flood-color="#ff0000" flood-opacity="0.5" result="PINK"></feFlood>        <feComposite in="PINK" in2="DILATED" operator="in" result="OUTLINE"></feComposite>        <feMerge>            <feMergeNode in="OUTLINE"></feMergeNode>            <feMergeNode in="SourceGraphic"></feMergeNode>        </feMerge>            <feColorMatrix type="matrix" values="0   0   0   0   0                0   1   0   0   0                0   0   0   0   0                0   0   0   1   0 "></feColorMatrix>    </filter></defs><defs><clipPath id="freepik--clip-path--inject-440"><polygon points="255.35 411.2 146.16 411.2 136.67 388.61 245.87 388.61 255.35 411.2" style="fill:#00FF88;stroke:#263238;stroke-linecap:round;stroke-linejoin:round;stroke-width:1.1699198484420776px"></polygon></clipPath></defs></svg>